<svg xmlns="http://www.w3.org/2000/svg" viewBox="0 0 1000 252.98"><defs><style>.cls-1,.cls-2{fill:#8d8aa4;}.cls-2{fill-rule:evenodd;}</style></defs><title>Asset 19</title><g id="Layer_2" data-name="Layer 2"><g id="Layer_1-2" data-name="Layer 1"><path class="cls-1" d="M37.29,47.64c0,4.21-1.26,7.47-3.75,9.71s-6.17,3.38-10.86,3.38c-4.92,0-8.7-1.13-11.21-3.37s-3.75-5.47-3.75-9.65V13.11H0V47.28c0,6.13,2,11,5.85,14.53s9.38,5.28,16.4,5.28,12.61-1.76,16.65-5.23S45,53.51,45,47.43V13.11H37.29Z"/><path class="cls-1" d="M98.62,43.59c-.06,1.5,0,4,.19,7.52Q99,54.4,99.08,56l-31-42.89H60V66.38h7.2V36.17c0-3.89-.17-8.2-.52-12.84L97.76,66.38h8.14V13.11H98.62Z"/><polygon class="cls-1" points="114.28 19.54 132.47 19.54 132.47 66.38 140.19 66.38 140.19 19.54 158.39 19.54 158.39 13.11 114.28 13.11 114.28 19.54"/><polygon class="cls-1" points="166.8 66.38 199.86 66.38 199.86 59.91 174.52 59.91 174.52 41.73 198.33 41.73 198.33 35.33 174.52 35.33 174.52 19.54 199.86 19.54 199.86 13.11 166.8 13.11 166.8 66.38"/><path class="cls-1" d="M249.83,28.38c0-5.08-1.77-8.95-5.26-11.49s-8.8-3.78-15.93-3.78H212.36V66.38h7.72V44.65l11-.23,14.35,22h8.87L238.57,42.67C246,40.11,249.83,35.31,249.83,28.38Zm-29.75-8.91h8.17c4.82,0,8.35.74,10.49,2.2s3.14,3.73,3.14,7-1,5.63-3.1,7.25-5.49,2.44-10.06,2.44h-8.64Z"/><path class="cls-1" d="M280.19,36.46a49,49,0,0,1-7.91-3.15,9.51,9.51,0,0,1-3.53-3,7.67,7.67,0,0,1-1-4.17,6.05,6.05,0,0,1,2.77-5.32c1.89-1.32,4.58-2,8-2a38.3,38.3,0,0,1,13.65,2.68l.48.18,2.46-6.24-.48-.2a43.05,43.05,0,0,0-16-2.89c-5.56,0-10.1,1.24-13.51,3.67a11.77,11.77,0,0,0-5.2,10,13.43,13.43,0,0,0,3.58,9.69c2.34,2.43,6.27,4.55,11.67,6.31a57.75,57.75,0,0,1,8.46,3.29,10.35,10.35,0,0,1,3.83,3,7.21,7.21,0,0,1,1.1,4.15,6.81,6.81,0,0,1-3.15,6c-2.15,1.47-5.44,2.21-9.77,2.21a45.37,45.37,0,0,1-15.77-2.89l-.7-.27v.75l.31,6.34c3.72,1.61,9.08,2.43,15.93,2.43,6.36,0,11.49-1.33,15.23-4A13,13,0,0,0,296.38,52a12.27,12.27,0,0,0-3.56-9.08C290.51,40.59,286.26,38.43,280.19,36.46Z"/><polygon class="cls-1" points="300.71 19.54 318.9 19.54 318.9 66.38 326.62 66.38 326.62 19.54 344.81 19.54 344.81 13.11 300.71 13.11 300.71 19.54"/><path class="cls-1" d="M382.47,8.07a4.4,4.4,0,0,0,2.86-1A3.7,3.7,0,0,0,386.61,4,3.65,3.65,0,0,0,385.32.93,4.58,4.58,0,0,0,382.47,0a4.45,4.45,0,0,0-2.82.93A3.72,3.72,0,0,0,378.42,4a3.81,3.81,0,0,0,1.22,3.06A4.28,4.28,0,0,0,382.47,8.07Z"/><path class="cls-1" d="M389.93,47.64c0,4.21-1.26,7.47-3.76,9.71s-6.16,3.38-10.85,3.38c-4.93,0-8.7-1.13-11.21-3.37s-3.76-5.47-3.76-9.65V13.11h-7.71V47.28c0,6.13,2,11,5.85,14.53s9.38,5.28,16.4,5.28,12.61-1.76,16.65-5.23,6.11-8.35,6.11-14.43V13.11h-7.72Z"/><path class="cls-1" d="M367.5,8.07a4.47,4.47,0,0,0,2.9-1A3.72,3.72,0,0,0,371.67,4,3.64,3.64,0,0,0,370.39.93,4.63,4.63,0,0,0,367.5,0a4.45,4.45,0,0,0-2.82.93A3.72,3.72,0,0,0,363.44,4a3.79,3.79,0,0,0,1.23,3.06A4.28,4.28,0,0,0,367.5,8.07Z"/><polygon class="cls-1" points="405.44 19.54 423.63 19.54 423.63 66.38 431.35 66.38 431.35 19.54 449.54 19.54 449.54 13.11 405.44 13.11 405.44 19.54"/><polygon class="cls-1" points="492.95 18.38 492.95 13.11 454.22 13.11 454.22 19.61 483.28 19.61 453.28 61.11 453.28 66.38 493.81 66.38 493.81 59.84 462.95 59.84 492.95 18.38"/><polygon class="cls-1" points="497.51 19.54 515.7 19.54 515.7 66.38 523.42 66.38 523.42 19.54 541.62 19.54 541.62 13.11 497.51 13.11 497.51 19.54"/><path class="cls-1" d="M604.59,13.44,591.46,47a90.07,90.07,0,0,0-3.2,9.65,94.67,94.67,0,0,0-3.14-9.43L571.43,13.11H563.6L585,66.38h7L613,13.11h-.76Z"/><path class="cls-1" d="M644.55,12.29c-8.6,0-15.33,2.41-20,7.17S617.46,31,617.46,39.6s2.37,15.5,7,20.28,11.39,7.21,20,7.21c8.39,0,15-2.47,19.76-7.34s7.13-11.62,7.13-20.08-2.39-15.24-7.1-20.08S652.91,12.29,644.55,12.29Zm14,43.15c-3.13,3.51-7.85,5.29-14,5.29s-10.86-1.79-14.06-5.31-4.84-8.84-4.84-15.75,1.63-12.06,4.84-15.6,8-5.31,14.14-5.31,10.86,1.77,14,5.27,4.73,8.78,4.73,15.64S661.65,51.91,658.5,55.44Z"/><path class="cls-1" d="M722.57,43.59c-.06,1.5,0,4,.19,7.52q.18,3.28.27,4.89L692,13.11h-8.06V66.38h7.2V36.17c0-3.89-.17-8.2-.52-12.84l31.09,43.05h8.14V13.11h-7.28Z"/><path class="cls-1" d="M748.65,35.87a5.39,5.39,0,0,0,3.9-1.4A5.22,5.22,0,0,0,754,30.53c0-3.5-1.85-5.34-5.35-5.34s-5.16,1.84-5.16,5.34a5.14,5.14,0,0,0,1.5,4.09A5.49,5.49,0,0,0,748.65,35.87Z"/><path class="cls-1" d="M748.65,56.7a5.06,5.06,0,0,0-3.8,1.38,5.49,5.49,0,0,0-1.36,4,5.17,5.17,0,0,0,1.5,4.1,5.53,5.53,0,0,0,3.66,1.24,5.42,5.42,0,0,0,3.9-1.39A5.23,5.23,0,0,0,754,62.07a5.34,5.34,0,0,0-1.43-4A5.46,5.46,0,0,0,748.65,56.7Z"/><path class="cls-2" d="M521.92,104.4l102.46,91.82h16.86V93.71H628.77v89.73L531.92,93.71H509.5V196.22h12.42ZM476.3,196.22h12.47V93.71H476.3ZM460.91,125a59,59,0,0,0-.82-10.33,25.63,25.63,0,0,0-2.88-8.3,21.76,21.76,0,0,0-5.57-6.44,31.52,31.52,0,0,0-8.72-4.48,67.61,67.61,0,0,0-12.65-2.65,151.75,151.75,0,0,0-17-.86h-34.8a122.41,122.41,0,0,0-20,1.41A42.82,42.82,0,0,0,345,97.64a22,22,0,0,0-8.17,7.12,30,30,0,0,0-4.16,10.09A66.22,66.22,0,0,0,331.14,128c-.13,4.88-.18,10.27-.18,16.16,0,6.12.05,11.65.18,16.71a71,71,0,0,0,1.55,13.56,31.3,31.3,0,0,0,4.16,10.42,22.59,22.59,0,0,0,8.17,7.35,43,43,0,0,0,13.47,4.38,116.48,116.48,0,0,0,20,1.46h34.84a153.12,153.12,0,0,0,17.08-.91A60.32,60.32,0,0,0,443,194.26a27.83,27.83,0,0,0,8.72-4.89,23.67,23.67,0,0,0,5.52-7,31.63,31.63,0,0,0,2.88-9.31,75.1,75.1,0,0,0,.82-11.69V144.12H396.85v10.41h51.6v6.62c0,3.66-.19,6.9-.46,9.59a25.57,25.57,0,0,1-1.83,7,13,13,0,0,1-3.74,4.89,17.08,17.08,0,0,1-6.26,3,48.5,48.5,0,0,1-9.45,1.5q-5.55.42-13.15.42H378.31c-5.85,0-10.73-.14-14.7-.51a34.1,34.1,0,0,1-9.86-2.09,12.66,12.66,0,0,1-6-4.44,20.82,20.82,0,0,1-3.1-7.76,73.73,73.73,0,0,1-1.1-11.82c-.09-4.71-.14-10.28-.14-16.81,0-6.26,0-11.64.1-16.12a66.75,66.75,0,0,1,1.14-11.37,18.25,18.25,0,0,1,3.06-7.44,13.77,13.77,0,0,1,6-4.34,37.42,37.42,0,0,1,9.86-2c4-.32,8.85-.46,14.7-.46h35.11c6.58,0,12.1.18,16.54.64A27.9,27.9,0,0,1,440.78,106a13.52,13.52,0,0,1,5.89,6.81c1.18,3,1.78,7.07,1.78,12.24Zm196.21,71.18h14.43l56.31-94.79,54.93,94.79h13.6l-60-103.74H718.58Zm-470.41-.5h13.84l54-94.79,52.73,94.79h13.11L262.74,92H245.66Zm-90.45-28h13.19l52.06-63.24v91.78h12.42V93.71H153.61L102.1,154.94,50.55,93.71H29.64V196.22H42.1V101.43ZM.37,196.22H12.83V93.71H.37Z"/><polygon class="cls-2" points="832.51 149.42 832.51 169.24 893.65 206.45 901.6 189.05 928.67 129.65 940.64 103.48 924.52 93.71 924.25 93.53 924.02 93.71 832.51 149.42"/><polygon class="cls-2" points="889.31 240.28 907.99 251.61 908.22 251.79 908.49 251.61 1000 195.9 1000 176.08 936.3 137.32 889.31 240.28"/><path class="cls-1" d="M24.31,243a9.66,9.66,0,0,1-.89,4.15,8.8,8.8,0,0,1-2.56,3.2,11.69,11.69,0,0,1-3.88,2,17.56,17.56,0,0,1-4.91.66,19.79,19.79,0,0,1-6.78-1A14.26,14.26,0,0,1,0,248.47l3.46-3.41A10.62,10.62,0,0,0,6,247,10,10,0,0,0,8.87,248a17.3,17.3,0,0,0,3.3.3A8.61,8.61,0,0,0,17.33,247a5.07,5.07,0,0,0,.51-7.37,4.25,4.25,0,0,0-1.41-.92,10.9,10.9,0,0,0-2.3-.52l-4-.57a11.51,11.51,0,0,1-6.47-2.73,8.43,8.43,0,0,1-2.47-6.49,9.87,9.87,0,0,1,1.38-5.23,9.12,9.12,0,0,1,3.94-3.51,13.73,13.73,0,0,1,6-1.25,17,17,0,0,1,5.93.93,14,14,0,0,1,4.65,2.94l-3.32,3.28a8.49,8.49,0,0,0-2.19-1.58,9.27,9.27,0,0,0-2.43-.81,14.08,14.08,0,0,0-2.78-.25,7.48,7.48,0,0,0-3.34.68,4.9,4.9,0,0,0-2.14,1.87,5.13,5.13,0,0,0-.73,2.74,4,4,0,0,0,1.28,3.17,6.27,6.27,0,0,0,1.66,1,9.14,9.14,0,0,0,2.17.59l3.88.58a17.42,17.42,0,0,1,3.81,1A8,8,0,0,1,21.53,236,8.79,8.79,0,0,1,24.31,243Z"/><path class="cls-1" d="M85.57,235.67c0,2.69-.06,4.75-.16,6.17a14.17,14.17,0,0,1-.85,4,10.18,10.18,0,0,1-2.24,3.49,12.3,12.3,0,0,1-9,3.64,12.15,12.15,0,0,1-8.94-3.62,10.1,10.1,0,0,1-2.29-3.48,14.15,14.15,0,0,1-.87-4c-.11-1.44-.16-3.5-.16-6.2,0-2.06,0-3.71.08-4.92a23.18,23.18,0,0,1,.37-3.34,11.05,11.05,0,0,1,1-2.84A10.23,10.23,0,0,1,64.39,222a12.15,12.15,0,0,1,8.94-3.62,12.33,12.33,0,0,1,9,3.62,10.2,10.2,0,0,1,2.25,3.49,14.22,14.22,0,0,1,.84,4C85.51,230.91,85.57,233,85.57,235.67Zm-5.17,0a46,46,0,0,0-.38-7.15,6.76,6.76,0,0,0-1.62-3.41,6.56,6.56,0,0,0-2.26-1.52,7.24,7.24,0,0,0-2.81-.57,7.31,7.31,0,0,0-2.84.57,6.43,6.43,0,0,0-2.25,1.52,6.92,6.92,0,0,0-1.63,3.43,45.64,45.64,0,0,0-.38,7.13c0,1.81,0,3.25.08,4.33a20.77,20.77,0,0,0,.32,2.83,7.56,7.56,0,0,0,.56,1.89,6.71,6.71,0,0,0,1,1.51,6.48,6.48,0,0,0,2.27,1.54,7.35,7.35,0,0,0,2.82.56,6.69,6.69,0,0,0,5.07-2.1,6.12,6.12,0,0,0,1.27-2.07,11.91,11.91,0,0,0,.58-3.17C80.35,239.65,80.4,237.88,80.4,235.67Z"/><path class="cls-1" d="M145.86,252.7h-21.6v-34h5.21v29.4h16.39Z"/><path class="cls-1" d="M206.75,241.21a11.83,11.83,0,0,1-1.59,6.14,10.9,10.9,0,0,1-4.38,4.16,13.24,13.24,0,0,1-6.27,1.47,13.08,13.08,0,0,1-6.23-1.47,10.81,10.81,0,0,1-4.37-4.16,11.83,11.83,0,0,1-1.59-6.14V218.65h5.16V241a8.38,8.38,0,0,0,.87,3.91,6.06,6.06,0,0,0,2.45,2.56,8.12,8.12,0,0,0,7.43,0,6.16,6.16,0,0,0,2.48-2.55,8.34,8.34,0,0,0,.88-3.92V218.65h5.16Z"/><path class="cls-1" d="M266.72,248.94a16.51,16.51,0,0,1-2.66,2.17,11.45,11.45,0,0,1-3.08,1.4,14,14,0,0,1-3.76.47,13.45,13.45,0,0,1-3.36-.41,11.83,11.83,0,0,1-3-1.25,12.29,12.29,0,0,1-2.57-2,10.25,10.25,0,0,1-2.29-3.48,14.5,14.5,0,0,1-.86-4c-.11-1.44-.16-3.5-.16-6.2,0-2.06,0-3.71.08-4.92a23.18,23.18,0,0,1,.37-3.34,10.08,10.08,0,0,1,2.86-5.42,12.07,12.07,0,0,1,4-2.69,12.78,12.78,0,0,1,4.91-.93,12.63,12.63,0,0,1,5.26,1,14.3,14.3,0,0,1,4.24,3l-3.43,3.48a12.11,12.11,0,0,0-2.83-2.19,6.9,6.9,0,0,0-3.24-.68,7.37,7.37,0,0,0-2.82.54,6.12,6.12,0,0,0-2.23,1.51,6.7,6.7,0,0,0-1,1.47,7.87,7.87,0,0,0-.58,1.92,20.57,20.57,0,0,0-.32,2.84c-.05,1.1-.08,2.56-.08,4.37a44.4,44.4,0,0,0,.39,7.17,6.78,6.78,0,0,0,1.62,3.44,6.36,6.36,0,0,0,2.23,1.5,7.2,7.2,0,0,0,2.82.55,6.9,6.9,0,0,0,3.24-.68,12.11,12.11,0,0,0,2.83-2.19Z"/><path class="cls-1" d="M309.93,252.7h-5.21v-34h5.21Z"/><path class="cls-1" d="M373.14,235.67q0,4-.15,6.17a14.17,14.17,0,0,1-.85,4,10.33,10.33,0,0,1-2.24,3.49,12.3,12.3,0,0,1-9,3.64,12.17,12.17,0,0,1-9-3.62,10.25,10.25,0,0,1-2.29-3.48,14.5,14.5,0,0,1-.86-4c-.11-1.44-.16-3.5-.16-6.2,0-2.06,0-3.71.08-4.92a23.18,23.18,0,0,1,.37-3.34,10.69,10.69,0,0,1,1-2.84A10.42,10.42,0,0,1,352,222a12.17,12.17,0,0,1,9-3.62,12.33,12.33,0,0,1,9,3.62,10.2,10.2,0,0,1,2.25,3.49,14.22,14.22,0,0,1,.84,4C373.09,230.91,373.14,233,373.14,235.67Zm-5.16,0a44.45,44.45,0,0,0-.39-7.15,6.6,6.6,0,0,0-1.62-3.41,6.43,6.43,0,0,0-2.25-1.52,7.24,7.24,0,0,0-2.81-.57,7.31,7.31,0,0,0-2.84.57,6.34,6.34,0,0,0-2.25,1.52,6.92,6.92,0,0,0-1.63,3.43,44.4,44.4,0,0,0-.38,7.13c0,1.81,0,3.25.08,4.33a20.9,20.9,0,0,0,.31,2.83,8,8,0,0,0,.57,1.89,6.71,6.71,0,0,0,1.05,1.51,6.48,6.48,0,0,0,2.27,1.54,7.35,7.35,0,0,0,2.82.56,6.65,6.65,0,0,0,5.06-2.1,6,6,0,0,0,1.27-2.07,11.86,11.86,0,0,0,.59-3.17C367.93,239.65,368,237.88,368,235.67Z"/><path class="cls-1" d="M437.51,252.7h-4.74l-15.72-24v24h-5.21v-34h4.76l15.74,23.91V218.65h5.17Z"/><path class="cls-1" d="M499.25,252.7H477.47v-34h21.78v4.65H482.67v9.92h14.15v4.6H482.67v10.23h16.58Z"/><path class="cls-1" d="M558.71,243a9.66,9.66,0,0,1-.89,4.15,8.8,8.8,0,0,1-2.56,3.2,11.69,11.69,0,0,1-3.88,2,17.56,17.56,0,0,1-4.91.66,19.79,19.79,0,0,1-6.78-1,14.26,14.26,0,0,1-5.29-3.46l3.46-3.41a10.47,10.47,0,0,0,2.51,1.92,9.94,9.94,0,0,0,2.91,1.05,17.12,17.12,0,0,0,3.29.3,8.61,8.61,0,0,0,5.16-1.37,5,5,0,0,0,.51-7.37,4.15,4.15,0,0,0-1.41-.92,10.9,10.9,0,0,0-2.3-.52l-4-.57a11.54,11.54,0,0,1-6.47-2.73,8.43,8.43,0,0,1-2.47-6.49,9.87,9.87,0,0,1,1.38-5.23,9.12,9.12,0,0,1,3.94-3.51,13.73,13.73,0,0,1,6.05-1.25,17,17,0,0,1,5.93.93,13.82,13.82,0,0,1,4.65,2.94l-3.32,3.28a8.49,8.49,0,0,0-2.19-1.58,9.27,9.27,0,0,0-2.43-.81,14.08,14.08,0,0,0-2.78-.25,7.51,7.51,0,0,0-3.34.68,4.9,4.9,0,0,0-2.14,1.87,5.13,5.13,0,0,0-.73,2.74,4,4,0,0,0,1.28,3.17,6.43,6.43,0,0,0,1.66,1,9.14,9.14,0,0,0,2.17.59l3.88.58a17.52,17.52,0,0,1,3.82,1,8,8,0,0,1,2.53,1.57A8.79,8.79,0,0,1,558.71,243Z"/><path class="cls-1" d="M676,218.65l-8.9,34h-4.49l-6.94-23.87-6.89,23.87h-4.51l-8.88-34h5.45L646.74,243l6.84-24.33h4.17L664.59,243l5.93-24.33Z"/><path class="cls-1" d="M733.79,252.7H712v-34h21.78v4.65H717.21v9.92h14.15v4.6H717.21v10.23h16.58Z"/><path class="cls-1" d="M796,243.08a10,10,0,0,1-1.3,5.24,8.23,8.23,0,0,1-3.65,3.27,12.38,12.38,0,0,1-5.36,1.11H771.93v-34h13.28a12.43,12.43,0,0,1,5.43,1.13,8.2,8.2,0,0,1,3.6,3.25,9.47,9.47,0,0,1,1.25,4.94,8.08,8.08,0,0,1-.64,3.24,7.66,7.66,0,0,1-1.69,2.49,6.68,6.68,0,0,1-2.27,1.48,8,8,0,0,1,3.67,2.88A8.31,8.31,0,0,1,796,243.08Zm-5.7-14.91a5,5,0,0,0-.68-2.63,4.43,4.43,0,0,0-1.95-1.67,7,7,0,0,0-2.93-.57h-7.63V233h7.63a6.07,6.07,0,0,0,4.07-1.28A4.5,4.5,0,0,0,790.33,228.17Zm.52,14.67a5.36,5.36,0,0,0-.66-2.71,4.47,4.47,0,0,0-1.93-1.79,6.37,6.37,0,0,0-3-.66h-8.13v10.37h8.13a6.31,6.31,0,0,0,3-.67,4.51,4.51,0,0,0,1.91-1.83A5.41,5.41,0,0,0,790.85,242.84Z"/></g></g></svg>