<svg xmlns="http://www.w3.org/2000/svg" viewBox="0 0 1000 240.01"><defs><style>.cls-1,.cls-2{fill:#8d8aa4;}.cls-2{fill-rule:evenodd;}</style></defs><title>Asset 20</title><g id="Layer_2" data-name="Layer 2"><g id="Layer_1-2" data-name="Layer 1"><path class="cls-1" d="M15.41.82H0V54.09H7.72V33.55H14c7.46,0,13.3-1.47,17.34-4.37S37.47,22,37.47,16.56C37.47,6.12,30.05.82,15.41.82Zm10.37,24c-2.55,1.68-6.78,2.52-12.57,2.52H7.72V7.11h7c5.13,0,8.94.82,11.34,2.45s3.5,4,3.5,7.28C29.51,20.53,28.29,23.12,25.78,24.77Z"/><path class="cls-1" d="M73.36,0c-8.6,0-15.33,2.41-20,7.17s-7.07,11.54-7.07,20.14,2.37,15.5,7,20.28,11.39,7.21,20,7.21c8.39,0,15-2.47,19.76-7.34s7.13-11.62,7.13-20.08S97.78,12.14,93.06,7.3,81.72,0,73.36,0Zm14,43.15c-3.13,3.51-7.85,5.29-14,5.29s-10.86-1.79-14.06-5.31-4.84-8.84-4.84-15.75S56,15.32,59.22,11.78s8-5.31,14.14-5.31,10.86,1.77,14,5.27,4.73,8.78,4.73,15.64S90.46,39.62,87.31,43.15Z"/><path class="cls-1" d="M162.17,33.39c-1,3.6-1.83,6.84-2.38,9.65a84.61,84.61,0,0,0-2.65-9.82L145.84.82h-7.45L128,32.94a82.43,82.43,0,0,0-2.64,10c-.57-2.92-1.32-6.09-2.26-9.47L113.89.82h-8.15l15.59,53.27h7.37L140.05,19a83.29,83.29,0,0,0,2.28-8c.14.52.32,1.16.54,1.93q1,3.55,1.85,5.88l12.09,35.33h7L179.47.82h-8.16Z"/><polygon class="cls-1" points="188.06 54.09 221.12 54.09 221.12 47.62 195.78 47.62 195.78 29.44 219.59 29.44 219.59 23.04 195.78 23.04 195.78 7.25 221.12 7.25 221.12 0.82 188.06 0.82 188.06 54.09"/><path class="cls-1" d="M271.09,16.09c0-5.08-1.77-8.94-5.26-11.49S257,.82,249.9.82H233.62V54.09h7.72V32.36l11-.23,14.35,22h8.87L259.83,30.38C267.3,27.82,271.09,23,271.09,16.09ZM241.34,7.18h8.17c4.82,0,8.35.74,10.49,2.2s3.14,3.73,3.14,7-1,5.63-3.1,7.25-5.49,2.45-10.06,2.45h-8.64Z"/><polygon class="cls-1" points="284.18 54.09 317.25 54.09 317.25 47.62 291.9 47.62 291.9 29.44 315.71 29.44 315.71 23.04 291.9 23.04 291.9 7.25 317.25 7.25 317.25 0.82 284.18 0.82 284.18 54.09"/><path class="cls-1" d="M347.87.82H329.75V54.09h16.43c9.75,0,17.35-2.35,22.57-7s7.89-11.43,7.89-20.17c0-8.18-2.55-14.66-7.59-19.24S356.9.82,347.87.82ZM337.46,7.11h9.19c7.25,0,12.77,1.7,16.41,5s5.47,8.39,5.47,15c0,6.79-2,12-5.84,15.42s-9.81,5.21-17.61,5.21h-7.62Z"/><path class="cls-1" d="M439.85,26a13.85,13.85,0,0,0,7-3.75,11.28,11.28,0,0,0,3-8c0-4.65-1.81-8.1-5.36-10.27S435.37.82,427.68.82H410.94V54.09H431.5c6.32,0,11.32-1.36,14.87-4a13.46,13.46,0,0,0,5.41-11.34C451.78,31.8,447.64,27.5,439.85,26Zm.45,19.48c-2.25,1.56-5.67,2.35-10.18,2.35H418.65V29.37h10.92c4.77,0,8.36.74,10.67,2.2s3.35,3.63,3.35,6.71C443.59,41.61,442.51,44,440.3,45.52Zm1.6-30.64c0,3-.93,5.11-2.87,6.37s-5.3,1.94-9.89,1.94H418.65V7.11H428c4.92,0,8.53.63,10.75,1.88A6.19,6.19,0,0,1,441.9,14.88Z"/><polygon class="cls-1" points="501.58 0.82 493.9 1.08 479.02 26.43 463.81 0.82 455.6 0.82 475.13 33.6 475.13 54.09 482.92 54.09 482.85 33.58 502.5 0.82 501.58 0.82"/><path class="cls-1" d="M513,23.58a5.39,5.39,0,0,0,3.9-1.4,5.23,5.23,0,0,0,1.46-3.94c0-3.5-1.86-5.34-5.36-5.34s-5.15,1.84-5.15,5.34a5.11,5.11,0,0,0,1.5,4.09A5.44,5.44,0,0,0,513,23.58Z"/><path class="cls-1" d="M513,44.41a5.1,5.1,0,0,0-3.81,1.38,5.53,5.53,0,0,0-1.34,4,5.08,5.08,0,0,0,1.5,4.09,6.06,6.06,0,0,0,7.55-.14,5.24,5.24,0,0,0,1.46-3.95,5.32,5.32,0,0,0-1.44-4A5.4,5.4,0,0,0,513,44.41Z"/><path class="cls-2" d="M521.92,91.42l102.46,91.83h16.86V80.74H628.77v89.73L531.92,80.74H509.5V183.25h12.42ZM476.3,183.25h12.47V80.74H476.3Zm-15.39-71.19a58.91,58.91,0,0,0-.82-10.32,25.77,25.77,0,0,0-2.88-8.31A22,22,0,0,0,451.64,87a31.79,31.79,0,0,0-8.72-4.47,67.61,67.61,0,0,0-12.65-2.65,151.53,151.53,0,0,0-17-.87h-34.8a121.17,121.17,0,0,0-20,1.42A42.82,42.82,0,0,0,345,84.67a22,22,0,0,0-8.17,7.12,29.92,29.92,0,0,0-4.16,10.09,66.11,66.11,0,0,0-1.55,13.1c-.13,4.89-.18,10.28-.18,16.17,0,6.12.05,11.64.18,16.71a71,71,0,0,0,1.55,13.56,31.16,31.16,0,0,0,4.16,10.41,22.5,22.5,0,0,0,8.17,7.35,42.69,42.69,0,0,0,13.47,4.39,116.48,116.48,0,0,0,20,1.46h34.84a152.91,152.91,0,0,0,17.08-.92A59.07,59.07,0,0,0,443,181.28a27.81,27.81,0,0,0,8.72-4.88,23.8,23.8,0,0,0,5.52-7,31.6,31.6,0,0,0,2.88-9.32,75,75,0,0,0,.82-11.69V131.15H396.85v10.41h51.6v6.62c0,3.65-.19,6.9-.46,9.59a25.66,25.66,0,0,1-1.83,7,13,13,0,0,1-3.74,4.88,17.08,17.08,0,0,1-6.26,3,48.5,48.5,0,0,1-9.45,1.5c-3.7.27-8.08.42-13.15.42H378.31c-5.85,0-10.73-.15-14.7-.51a33.75,33.75,0,0,1-9.86-2.1,12.65,12.65,0,0,1-6-4.43,21,21,0,0,1-3.1-7.76,73.86,73.86,0,0,1-1.1-11.83c-.09-4.7-.14-10.27-.14-16.8,0-6.26,0-11.64.1-16.12a66.75,66.75,0,0,1,1.14-11.37,18.25,18.25,0,0,1,3.06-7.44,13.77,13.77,0,0,1,6-4.34,37.42,37.42,0,0,1,9.86-2c4-.32,8.85-.46,14.7-.46h35.11c6.58,0,12.1.18,16.54.64A27.9,27.9,0,0,1,440.78,93a13.48,13.48,0,0,1,5.89,6.81c1.18,3,1.78,7.07,1.78,12.23Zm196.21,71.19h14.43l56.31-94.8,54.93,94.8h13.6l-60-103.75H718.58Zm-470.41-.5h13.84l54-94.8,52.73,94.8h13.11L262.74,79H245.66Zm-90.45-28h13.19l52.06-63.24v91.78h12.42V80.74H153.61L102.1,142,50.55,80.74H29.64V183.25H42.1V88.45ZM.37,183.25H12.83V80.74H.37Z"/><polygon class="cls-2" points="832.51 136.45 832.51 156.26 893.65 193.47 901.6 176.08 928.67 116.67 940.64 90.51 924.52 80.74 924.25 80.56 924.02 80.74 832.51 136.45"/><polygon class="cls-2" points="889.31 227.31 907.99 238.64 908.22 238.82 908.49 238.64 1000 182.93 1000 163.11 936.3 124.35 889.31 227.31"/><path class="cls-1" d="M24.31,230a9.66,9.66,0,0,1-.89,4.15,8.69,8.69,0,0,1-2.56,3.19,11.5,11.5,0,0,1-3.88,2,17.2,17.2,0,0,1-4.91.67,19.79,19.79,0,0,1-6.78-1A14.38,14.38,0,0,1,0,235.5l3.46-3.41A10.58,10.58,0,0,0,6,234a10.37,10.37,0,0,0,2.91,1.06,17.3,17.3,0,0,0,3.3.3A8.61,8.61,0,0,0,17.33,234a5.07,5.07,0,0,0,.51-7.37,4.1,4.1,0,0,0-1.41-.92,10.81,10.81,0,0,0-2.3-.53l-4-.56a11.65,11.65,0,0,1-6.47-2.73,8.43,8.43,0,0,1-2.47-6.49,9.84,9.84,0,0,1,1.38-5.23,9.12,9.12,0,0,1,3.94-3.51,13.59,13.59,0,0,1,6-1.25,17,17,0,0,1,5.93.93,13.86,13.86,0,0,1,4.65,2.94l-3.32,3.27A8.69,8.69,0,0,0,17.61,211a9.67,9.67,0,0,0-2.43-.82,14.12,14.12,0,0,0-2.78-.24,7.63,7.63,0,0,0-3.34.67,5,5,0,0,0-2.14,1.88,5.13,5.13,0,0,0-.73,2.74,4,4,0,0,0,1.28,3.17,6.55,6.55,0,0,0,1.66,1,9.14,9.14,0,0,0,2.17.59l3.88.58a17.42,17.42,0,0,1,3.81,1A8,8,0,0,1,21.53,223,8.79,8.79,0,0,1,24.31,230Z"/><path class="cls-1" d="M85.57,222.69c0,2.69-.06,4.75-.16,6.18a14.17,14.17,0,0,1-.85,4,10.28,10.28,0,0,1-2.24,3.49,12.3,12.3,0,0,1-9,3.64,12.15,12.15,0,0,1-8.94-3.62,10.1,10.1,0,0,1-2.29-3.48,14.23,14.23,0,0,1-.87-4c-.11-1.44-.16-3.5-.16-6.2,0-2.07,0-3.71.08-4.92a23.18,23.18,0,0,1,.37-3.34,11.05,11.05,0,0,1,1-2.84A10.23,10.23,0,0,1,64.39,209a12.11,12.11,0,0,1,8.94-3.62,12.29,12.29,0,0,1,9,3.62,10.2,10.2,0,0,1,2.25,3.49,14.22,14.22,0,0,1,.84,4C85.51,217.94,85.57,220,85.57,222.69Zm-5.17,0a46,46,0,0,0-.38-7.15,6.72,6.72,0,0,0-1.62-3.41,6.56,6.56,0,0,0-2.26-1.52,7.24,7.24,0,0,0-2.81-.57,7.31,7.31,0,0,0-2.84.57,6.43,6.43,0,0,0-2.25,1.52,6.92,6.92,0,0,0-1.63,3.43,45.64,45.64,0,0,0-.38,7.13c0,1.81,0,3.25.08,4.33a20.77,20.77,0,0,0,.32,2.83,7.34,7.34,0,0,0,.56,1.88,6.53,6.53,0,0,0,1,1.52,6.61,6.61,0,0,0,2.27,1.54,7.35,7.35,0,0,0,2.82.56,6.69,6.69,0,0,0,5.07-2.1,6.32,6.32,0,0,0,1.27-2.07,12,12,0,0,0,.58-3.17C80.35,226.68,80.4,224.91,80.4,222.7Z"/><path class="cls-1" d="M145.86,239.73h-21.6v-34h5.21v29.4h16.39Z"/><path class="cls-1" d="M206.75,228.24a11.83,11.83,0,0,1-1.59,6.14,10.88,10.88,0,0,1-4.38,4.15,13.13,13.13,0,0,1-6.27,1.48,13,13,0,0,1-6.23-1.48,10.79,10.79,0,0,1-4.37-4.15,11.83,11.83,0,0,1-1.59-6.14V205.68h5.16V228a8.32,8.32,0,0,0,.87,3.91,6,6,0,0,0,2.45,2.57,8.12,8.12,0,0,0,7.43,0,6.16,6.16,0,0,0,2.48-2.55,8.38,8.38,0,0,0,.88-3.93v-22.3h5.16Z"/><path class="cls-1" d="M266.72,236a16.51,16.51,0,0,1-2.66,2.17,11.45,11.45,0,0,1-3.08,1.4,14,14,0,0,1-3.76.47,13.45,13.45,0,0,1-3.36-.41,12.2,12.2,0,0,1-3-1.25,12.64,12.64,0,0,1-2.57-2,10.25,10.25,0,0,1-2.29-3.48,14.58,14.58,0,0,1-.86-4c-.11-1.44-.16-3.5-.16-6.2,0-2.07,0-3.71.08-4.92a23.18,23.18,0,0,1,.37-3.34,10.08,10.08,0,0,1,2.86-5.42,12.25,12.25,0,0,1,4-2.7,13,13,0,0,1,4.91-.92,12.63,12.63,0,0,1,5.26,1,14.25,14.25,0,0,1,4.24,3l-3.43,3.49a12.19,12.19,0,0,0-2.83-2.2,7,7,0,0,0-3.24-.67,7.37,7.37,0,0,0-2.82.53,6.27,6.27,0,0,0-2.23,1.52,6.7,6.7,0,0,0-1,1.47,7.87,7.87,0,0,0-.58,1.92,20.57,20.57,0,0,0-.32,2.84c-.05,1.1-.08,2.56-.08,4.37a44.49,44.49,0,0,0,.39,7.17,6.85,6.85,0,0,0,1.62,3.44,6.49,6.49,0,0,0,2.23,1.5,7.2,7.2,0,0,0,2.82.55,7,7,0,0,0,3.24-.68,12.11,12.11,0,0,0,2.83-2.19Z"/><path class="cls-1" d="M309.93,239.73h-5.21v-34h5.21Z"/><path class="cls-1" d="M373.14,222.69q0,4-.15,6.18a14.17,14.17,0,0,1-.85,4,10.43,10.43,0,0,1-2.24,3.49,12.3,12.3,0,0,1-9,3.64,12.17,12.17,0,0,1-9-3.62,10.25,10.25,0,0,1-2.29-3.48,14.58,14.58,0,0,1-.86-4c-.11-1.44-.16-3.5-.16-6.2,0-2.07,0-3.71.08-4.92a23.18,23.18,0,0,1,.37-3.34,10.69,10.69,0,0,1,1-2.84A10.42,10.42,0,0,1,352,209a12.13,12.13,0,0,1,9-3.62,12.29,12.29,0,0,1,9,3.62,10.2,10.2,0,0,1,2.25,3.49,14.22,14.22,0,0,1,.84,4Q373.14,218.66,373.14,222.69Zm-5.16,0a44.45,44.45,0,0,0-.39-7.15,6.56,6.56,0,0,0-1.62-3.41,6.43,6.43,0,0,0-2.25-1.52,7.24,7.24,0,0,0-2.81-.57,7.31,7.31,0,0,0-2.84.57,6.34,6.34,0,0,0-2.25,1.52,6.92,6.92,0,0,0-1.63,3.43,44.4,44.4,0,0,0-.38,7.13c0,1.81,0,3.25.08,4.33a20.9,20.9,0,0,0,.31,2.83,7.71,7.71,0,0,0,.57,1.88,6.53,6.53,0,0,0,1.05,1.52,6.61,6.61,0,0,0,2.27,1.54,7.35,7.35,0,0,0,2.82.56,6.65,6.65,0,0,0,5.06-2.1,6.16,6.16,0,0,0,1.27-2.07,12,12,0,0,0,.59-3.17C367.93,226.68,368,224.91,368,222.7Z"/><path class="cls-1" d="M437.51,239.73h-4.74l-15.72-24v24h-5.21v-34h4.76l15.74,23.91V205.68h5.17Z"/><path class="cls-1" d="M499.25,239.73H477.47v-34h21.78v4.65H482.67v9.92h14.15v4.6H482.67v10.23h16.58Z"/><path class="cls-1" d="M558.71,230a9.66,9.66,0,0,1-.89,4.15,8.69,8.69,0,0,1-2.56,3.19,11.5,11.5,0,0,1-3.88,2,17.2,17.2,0,0,1-4.91.67,19.79,19.79,0,0,1-6.78-1,14.38,14.38,0,0,1-5.29-3.46l3.46-3.41a10.43,10.43,0,0,0,2.51,1.91,10.26,10.26,0,0,0,2.91,1.06,17.12,17.12,0,0,0,3.29.3,8.61,8.61,0,0,0,5.16-1.37,4.52,4.52,0,0,0,1.87-3.85,4.48,4.48,0,0,0-1.36-3.52,4,4,0,0,0-1.41-.92,10.81,10.81,0,0,0-2.3-.53l-4-.56a11.68,11.68,0,0,1-6.47-2.73,8.43,8.43,0,0,1-2.47-6.49,9.84,9.84,0,0,1,1.38-5.23,9.12,9.12,0,0,1,3.94-3.51,13.59,13.59,0,0,1,6.05-1.25,17,17,0,0,1,5.93.93,13.67,13.67,0,0,1,4.65,2.94l-3.32,3.27A8.69,8.69,0,0,0,552,211a9.67,9.67,0,0,0-2.43-.82,14.12,14.12,0,0,0-2.78-.24,7.66,7.66,0,0,0-3.34.67,5,5,0,0,0-2.14,1.88,5.13,5.13,0,0,0-.73,2.74,4,4,0,0,0,1.28,3.17,6.73,6.73,0,0,0,1.66,1,9.14,9.14,0,0,0,2.17.59l3.88.58a17.52,17.52,0,0,1,3.82,1,8,8,0,0,1,2.53,1.57A8.79,8.79,0,0,1,558.71,230Z"/><path class="cls-1" d="M676,205.68l-8.9,34h-4.49l-6.94-23.87-6.89,23.87h-4.51l-8.88-34h5.45L646.74,230l6.84-24.33h4.17L664.59,230l5.93-24.33Z"/><path class="cls-1" d="M733.79,239.73H712v-34h21.78v4.65H717.21v9.92h14.15v4.6H717.21v10.23h16.58Z"/><path class="cls-1" d="M796,230.1a10,10,0,0,1-1.3,5.25,8.15,8.15,0,0,1-3.65,3.26,12.23,12.23,0,0,1-5.36,1.12H771.93v-34h13.28a12.43,12.43,0,0,1,5.43,1.13,8.2,8.2,0,0,1,3.6,3.25,9.45,9.45,0,0,1,1.25,4.94,8,8,0,0,1-.64,3.23,7.71,7.71,0,0,1-1.69,2.5,6.68,6.68,0,0,1-2.27,1.48,8,8,0,0,1,3.67,2.87A8.35,8.35,0,0,1,796,230.1Zm-5.7-14.9a5,5,0,0,0-.68-2.63,4.37,4.37,0,0,0-1.95-1.67,7,7,0,0,0-2.93-.57h-7.63v9.73h7.63a6,6,0,0,0,4.07-1.28A4.48,4.48,0,0,0,790.33,215.2Zm.52,14.67a5.33,5.33,0,0,0-.66-2.71,4.56,4.56,0,0,0-1.93-1.8,6.5,6.5,0,0,0-3-.65h-8.13v10.37h8.13a6.31,6.31,0,0,0,3-.67,4.51,4.51,0,0,0,1.91-1.83A5.41,5.41,0,0,0,790.85,229.87Z"/></g></g></svg>